<?xml version="1.0" encoding="UTF-8"?>
<svg width="752pt" height="752pt" version="1.1" viewBox="0 0 752 752" xmlns="http://www.w3.org/2000/svg">
 <g>
  <path d="m752 376c0 134.33-71.664 258.46-188 325.62-116.34 67.168-259.66 67.168-376 0-116.34-67.164-188-191.29-188-325.62s71.664-258.46 188-325.62c116.34-67.168 259.66-67.168 376 0 116.34 67.164 188 191.29 188 325.62" fill="#e02353"/>
  <path d="m376 490.7c-10.793 0-21.145 4.2891-28.777 11.922-7.6328 7.6328-11.918 17.984-11.918 28.777s4.2852 21.145 11.918 28.777c7.6328 7.6328 17.984 11.922 28.777 11.922 10.797 0 21.148-4.2891 28.781-11.922 7.6289-7.6328 11.918-17.984 11.918-28.777-0.011719-10.789-4.3047-21.137-11.934-28.766s-17.973-11.922-28.766-11.934zm0 66.598c-6.8672 0-13.453-2.7305-18.312-7.5859-4.8555-4.8555-7.5859-11.445-7.5859-18.312 0-6.8711 2.7305-13.457 7.5859-18.312 4.8594-4.8594 11.445-7.5859 18.312-7.5859 6.8711 0 13.457 2.7266 18.316 7.5859 4.8555 4.8555 7.582 11.441 7.582 18.312-0.007813 6.8672-2.7383 13.449-7.5938 18.305-4.8555 4.8555-11.438 7.5859-18.305 7.5938zm60.141-382.02c-17.395-17.398-41.465-26.43-66.012-24.762-21.793 1.8594-42.078 11.898-56.773 28.102-14.695 16.199-22.719 37.363-22.449 59.234v64.816c0.007812 7.8086 6.332 14.133 14.141 14.141h0.65625v212.33c-0.28516 18.25 6.418 35.922 18.738 49.391 12.316 13.469 29.324 21.719 47.527 23.055 1.3281 0.070313 2.6602 0.11328 3.9805 0.11328 18.617 0.007813 36.477-7.3711 49.66-20.52 13.184-13.145 20.609-30.984 20.652-49.602 0-0.0625 0.035156-214.77 0.035156-214.77h0.66016c7.8047-0.007812 14.133-6.332 14.141-14.141v-67.254c0.046875-22.574-8.9414-44.23-24.957-60.137zm-19.812 394.23c-11.242 11.91-27.176 18.242-43.527 17.301-14.43-1.125-27.883-7.7227-37.605-18.441-9.7227-10.723-14.98-24.758-14.691-39.227v-212.33h14.801v150.13c-0.007813 4.7656 2.375 9.2148 6.3438 11.855 3.8828 2.6055 8.8086 3.0938 13.125 1.3047 15.773-6.5352 33.676-5.4453 48.539 2.9531s25.035 23.172 27.578 40.055c2.5391 16.883-2.832 33.992-14.562 46.395zm-58.098-252.7c7.8086-0.007812 14.137-6.332 14.148-14.141v-18.266c0-2.7422-1.5156-5.2539-3.9375-6.5391-4.5469-2.4453-7.6367-6.9297-8.2969-12.051-0.66406-5.1211 1.1836-10.246 4.9609-13.77 3.7773-3.5195 9.0195-5.0039 14.082-3.9844 4.3359 0.86719 8.125 3.4883 10.465 7.2383 2.3398 3.7539 3.0273 8.3047 1.8945 12.582-1.1289 4.2773-3.9766 7.8945-7.8633 10-2.4062 1.2852-3.9062 3.793-3.9062 6.5234v18.27-0.003906c0.007812 7.8086 6.3359 14.133 14.141 14.145h7.9805v149.27c-4.8867-1.9844-9.9883-3.3906-15.207-4.1836-12.348-1.8633-24.969-0.44141-36.59 4.1328v-149.21zm73.27 171.73c-4.2266-5.4453-9.2109-10.258-14.801-14.289v-157.44h14.801zm14.801-186.52h-51.723v-13.582c6.6484-5.0039 10.992-12.48 12.047-20.734 1.0547-8.25-1.2656-16.582-6.4453-23.094-5.1758-6.5156-12.762-10.664-21.043-11.5-8.2773-0.83594-16.543 1.707-22.918 7.0508-7.25 6.0312-11.328 15.059-11.062 24.484 0.26562 9.4258 4.8438 18.207 12.422 23.82v13.555h-51.875v-64.16c-0.27344-18.121 6.3203-35.676 18.453-49.141 12.137-13.461 28.918-21.832 46.973-23.434 20.281-1.3555 40.16 6.1055 54.547 20.465 13.23 13.137 20.656 31.023 20.621 49.672zm-115.49-67.797c-0.085938 1.2031-0.12891 2.4141-0.12891 3.6367v3.5625c0 1.5352-1.2422 2.7773-2.7773 2.7773-1.5312 0-2.7734-1.2422-2.7734-2.7773v-3.5625c0-1.3555 0.050782-2.7031 0.14453-4.0352 0.12891-1.5117 1.4492-2.6367 2.9648-2.5312 1.5117 0.10938 2.6562 1.4141 2.5703 2.9297zm88.594-25.301c0.38672 0.62891 0.50781 1.3828 0.33984 2.0977-0.17188 0.71875-0.62109 1.3359-1.2461 1.7227-0.62891 0.38672-1.3828 0.50781-2.1016 0.33594-0.71484-0.17188-1.332-0.62109-1.7188-1.25-1.8828-3.0586-4.1211-5.8828-6.6602-8.4219-1.1133-1.1133-2.2695-2.1602-3.4727-3.1445-1.1836-0.96875-1.3555-2.7148-0.38672-3.8984s2.7109-1.3594 3.8984-0.39453c1.3516 1.1055 2.6484 2.2773 3.8828 3.5117 2.8477 2.8477 5.3516 6.0156 7.4648 9.4414zm-32.473-20.426c-0.23047 1.3281-1.3828 2.2969-2.7305 2.3008-0.16016-0.003906-0.32031-0.015625-0.47656-0.042969-3.6016-0.61719-7.2695-0.80469-10.914-0.55078-1.4883 0.10156-2.9688 0.28125-4.4336 0.53906-1.5039 0.23438-2.9258-0.76172-3.2148-2.2578-0.26172-1.5117 0.75-2.9492 2.2617-3.2148 1.6602-0.28516 3.332-0.48828 5.0117-0.60156 4.0898-0.27344 8.1953-0.066406 12.234 0.61719 1.5117 0.26172 2.5234 1.6992 2.2617 3.2109zm-38.875 8.0664c0.98828 1.1719 0.83984 2.9219-0.32813 3.9141-3.9453 3.3398-7.3164 7.3047-9.9727 11.734-0.375 0.63672-0.99219 1.1016-1.7109 1.2812-0.71875 0.18359-1.4766 0.070313-2.1133-0.30859-0.63281-0.38281-1.0898-1.0039-1.2656-1.7227-0.17578-0.72266-0.054687-1.4805 0.33203-2.1133 2.9766-4.9492 6.7383-9.3789 11.145-13.113 1.1719-0.98438 2.9219-0.83984 3.9141 0.32812zm75.926 34.48c0.73828-0.039063 1.4609 0.22656 2 0.73047 0.54297 0.50781 0.85547 1.2109 0.86719 1.9492l0.023438 7.5195h0.003906c0 1.5312-1.2422 2.7734-2.7773 2.7734-1.5312 0-2.7734-1.2422-2.7734-2.7734l-0.023438-7.332c-0.050781-1.5312 1.1484-2.8125 2.6797-2.8672z" fill="#fff"/>
 </g>
</svg>
