<?xml version="1.0" encoding="UTF-8"?>
<svg width="752pt" height="752pt" version="1.1" viewBox="0 0 752 752" xmlns="http://www.w3.org/2000/svg">
 <g>
  <path d="m752 376c0 134.33-71.664 258.46-188 325.62-116.34 67.168-259.66 67.168-376 0-116.34-67.164-188-191.29-188-325.62s71.664-258.46 188-325.62c116.34-67.168 259.66-67.168 376 0 116.34 67.164 188 191.29 188 325.62" fill="#e02353"/>
  <path d="m494.4 445.07h-276.25c-38.082 0-69.062-30.98-69.062-69.062 0-38.082 30.98-69.062 69.062-69.062h276.25c5.4258 0 9.8672 4.4414 9.8672 9.8672 0 5.4258-4.4414 9.8672-9.8672 9.8672h-276.25c-27.191 0-49.332 22.121-49.332 49.332 0 27.211 22.141 49.332 49.332 49.332h276.25c5.4258 0 9.8672 4.4414 9.8672 9.8672s-4.4414 9.8672-9.8672 9.8672z" fill="#fff"/>
  <path d="m218.14 445.07c-5.4453 0-9.8672-4.4414-9.8672-9.8672s4.4219-9.8672 9.8672-9.8672c27.191 0 49.332-22.121 49.332-49.332s-22.141-49.332-49.332-49.332c-5.4453 0-9.8672-4.4414-9.8672-9.8672s4.4219-9.8672 9.8672-9.8672c38.082 0 69.062 30.98 69.062 69.062 0 38.082-30.98 69.062-69.062 69.062z" fill="#fff"/>
  <path d="m524 415.46c-21.785 0-39.465-17.68-39.465-39.465s17.68-39.465 39.465-39.465 39.465 17.68 39.465 39.465-17.68 39.465-39.465 39.465zm0-59.195c-10.871 0-19.734 8.8398-19.734 19.734 0 10.891 8.8594 19.734 19.734 19.734 10.871 0 19.734-8.8398 19.734-19.734 0-10.891-8.8594-19.734-19.734-19.734z" fill="#fff"/>
  <path d="m533.86 445.07h-39.465c-5.4258 0-9.8672-4.4414-9.8672-9.8672s4.4414-9.8672 9.8672-9.8672h39.465c27.191 0 49.332-22.121 49.332-49.332s-22.141-49.332-49.332-49.332h-98.664v19.734c0 10.891 8.8594 19.734 19.734 19.734 5.4258 0 9.8672 4.4414 9.8672 9.8672 0 5.4258-4.4414 9.8672-9.8672 9.8672-21.785 0-39.465-17.68-39.465-39.465v-29.598c0-5.4258 4.4414-9.8672 9.8672-9.8672h108.53c38.082 0 69.062 30.98 69.062 69.062 0 38.082-30.98 69.062-69.062 69.062z" fill="#fff"/>
  <path d="m425.33 435.2c-5.4258 0-9.8672-4.4414-9.8672-9.8672v-19.734c0-21.785 17.68-39.465 39.465-39.465 5.4258 0 9.8672 4.4414 9.8672 9.8672s-4.4414 9.8672-9.8672 9.8672c-10.871 0-19.734 8.8398-19.734 19.734v19.734c0 5.4258-4.4414 9.8672-9.8672 9.8672z" fill="#fff"/>
 </g>
</svg>
