<?xml version="1.0" encoding="UTF-8"?>
<svg width="752pt" height="752pt" version="1.1" viewBox="0 0 752 752" xmlns="http://www.w3.org/2000/svg">
 <g>
  <path d="m752 376c0 134.33-71.664 258.46-188 325.62-116.34 67.168-259.66 67.168-376 0-116.34-67.164-188-191.29-188-325.62s71.664-258.46 188-325.62c116.34-67.168 259.66-67.168 376 0 116.34 67.164 188 191.29 188 325.62" fill="#ff001b"/>
  <path d="m570.17 248.13v217.85h-28.414v-236.79h9.4727c10.418 0 18.941 8.5234 18.941 18.941zm-359.92-18.941h-9.4727c-10.418 0-18.941 8.5234-18.941 18.941v217.85h28.414zm-28.418 265.21c0 10.418 8.5234 18.941 18.941 18.941h350.45c10.418 0 18.941-8.5234 18.941-18.941v-9.4727h-388.33zm274.68 66.301h-45.938l-8.0508-28.414-53.043-0.003906-8.0508 28.414-45.938 0.003907c-5.2109 0-9.4727 4.2617-9.4727 9.4727s4.2617 9.4727 9.4727 9.4727h161.02c5.2109 0 9.4727-4.2617 9.4727-9.4727s-4.2617-9.4727-9.4688-9.4727zm66.301-94.719h-293.62v-274.68c0-10.418 8.5234-18.941 18.941-18.941h255.73c10.418 0 18.941 8.5234 18.941 18.941zm-56.832-146.81c0-18.469-14.68-33.152-33.152-33.152h-23.68v-23.68c0-18.469-14.68-33.152-33.152-33.152-18.469 0-33.152 14.68-33.152 33.152v23.68h-23.68c-18.469 0-33.152 14.68-33.152 33.152 0 18.469 14.68 33.152 33.152 33.152h23.68v23.68c0 18.469 14.68 33.152 33.152 33.152 18.469 0 33.152-14.68 33.152-33.152v-23.68h23.68c18.473 0 33.152-14.684 33.152-33.152zm-33.148-14.207h-33.152c-5.2109 0-9.4727-4.2617-9.4727-9.4727v-33.152c0-8.0508-6.1562-14.207-14.207-14.207s-14.207 6.1562-14.207 14.207v33.152c0 5.2109-4.2617 9.4727-9.4727 9.4727h-33.152c-8.0508 0-14.207 6.1562-14.207 14.207 0 7.5781 6.1562 14.207 14.207 14.207h33.152c5.2109 0 9.4727 4.2617 9.4727 9.4727v33.152c0 7.5781 6.1562 14.207 14.207 14.207s14.207-6.6289 14.207-14.207v-33.152c0-5.2109 4.2617-9.4727 9.4727-9.4727h33.152c8.0508 0 14.207-6.6289 14.207-14.207 0-8.0508-6.1562-14.207-14.207-14.207z" fill="#fff"/>
 </g>
</svg>
