<?xml version="1.0" encoding="UTF-8"?>
<svg width="752pt" height="752pt" version="1.1" viewBox="0 0 752 752" xmlns="http://www.w3.org/2000/svg">
 <g>
  <path d="m752 376c0 134.33-71.664 258.46-188 325.62-116.34 67.168-259.66 67.168-376 0-116.34-67.164-188-191.29-188-325.62s71.664-258.46 188-325.62c116.34-67.168 259.66-67.168 376 0 116.34 67.164 188 191.29 188 325.62" fill="#e02353"/>
  <path d="m279.32 527.78c25.367 17.934 58.855 41.461 92.941 64.426 1.1328 0.76172 2.4336 1.1445 3.7422 1.1445s2.6094-0.37891 3.7422-1.1445c34.086-22.961 67.574-46.492 92.957-64.434 52.242-37.168 83.57-98.543 83.797-164.18 0.14062-52.305 1.1602-105.17 3.0195-157.12 0.87109-23.453-17.383-43.434-40.715-44.539-94.746-4.3711-190.84-4.3711-285.62 0-23.312 1.1055-41.57 21.09-40.703 44.527 1.875 52.215 2.8867 105.08 3.0273 157.12v0.003906c0.22656 65.645 31.551 127.02 83.812 164.19zm-45.508-352.46c94.363-4.3438 190.05-4.3438 284.38 0 16.012 0.75781 28.543 14.512 27.941 30.664-1.8672 52.102-2.8867 105.12-3.0273 157.57-0.21094 61.324-29.434 118.63-78.141 153.29-24.391 17.234-56.281 39.641-88.953 61.723-32.672-22.082-64.562-44.488-88.938-61.715-48.727-34.664-77.949-91.973-78.16-153.3-0.14062-52.191-1.1602-105.21-3.0352-157.57-0.59375-16.133 11.945-29.887 27.938-30.652z" fill="#fff"/>
  <path d="m332.03 379.98h11.371v11.371c0 17.98 14.625 32.609 32.609 32.609 17.984 0 32.609-14.629 32.609-32.609v-11.371h11.371c17.984 0 32.609-14.629 32.609-32.609s-14.625-32.609-32.609-32.609h-11.371v-11.371c0-17.98-14.625-32.609-32.609-32.609-17.984 0-32.609 14.629-32.609 32.609v11.371h-11.371c-17.984 0-32.609 14.629-32.609 32.609s14.625 32.609 32.609 32.609zm0-51.816h18.07c3.6992 0 6.7031-3 6.7031-6.7031v-18.07c0-10.59 8.6133-19.207 19.207-19.207s19.207 8.6172 19.207 19.207v18.07c0 3.6992 3 6.7031 6.7031 6.7031h18.07c10.594 0 19.207 8.6172 19.207 19.207s-8.6133 19.207-19.207 19.207h-18.07c-3.6992 0-6.7031 3-6.7031 6.7031v18.07c0 10.59-8.6133 19.207-19.207 19.207s-19.207-8.6172-19.207-19.207v-18.07c0-3.6992-3-6.7031-6.7031-6.7031h-18.07c-10.594 0-19.207-8.6172-19.207-19.207s8.6133-19.207 19.207-19.207z" fill="#fff"/>
  <path d="m376 474.87c70.332 0 127.56-57.16 127.56-127.42 0-70.336-57.227-127.56-127.56-127.56-70.332 0-127.56 57.227-127.56 127.56 0.003907 70.262 57.227 127.42 127.56 127.42zm0-241.58c62.941 0 114.16 51.215 114.16 114.16 0 62.871-51.215 114.02-114.16 114.02s-114.15-51.148-114.15-114.02c0-62.945 51.211-114.16 114.15-114.16z" fill="#fff"/>
 </g>
</svg>
